HIERARCHY
ROOT RootJoint
{
    OFFSET   0.000000   0.000000   0.000000
    CHANNELS 6 Xposition Yposition Zposition Xrotation Yrotation Zrotation
    JOINT pelvis_lowerback
    {
        OFFSET   0.000000   0.093605   0.000000
        CHANNELS 3 Xrotation Yrotation Zrotation
        JOINT lowerback_torso
        {
            OFFSET   0.000000   0.100000   0.000000
            CHANNELS 3 Xrotation Yrotation Zrotation
            JOINT torso_head
            {
                OFFSET   0.000000   0.282350   0.000000
                CHANNELS 3 Xrotation Yrotation Zrotation
                End Site
                {
                    OFFSET   0.000000   0.192650   0.000000
                }
            }
            JOINT rTorso_Clavicle
            {
                OFFSET  -0.001000   0.157500   0.000000
                CHANNELS 3 Xrotation Yrotation Zrotation
                JOINT rShoulder
                {
                    OFFSET  -0.117647   0.000000   0.000000
                    CHANNELS 3 Xrotation Yrotation Zrotation
                    JOINT rElbow
                    {
                        OFFSET  -0.245000   0.000000   0.000000
                        CHANNELS 3 Xrotation Yrotation Zrotation
                        JOINT rWrist
                        {
                            OFFSET  -0.240000   0.000000   0.000000
                            CHANNELS 3 Xrotation Yrotation Zrotation
                            End Site
                            {
                                OFFSET  -0.116353  -0.002500   0.000000
                            }
                        }
                    }
                }
            }
            JOINT lTorso_Clavicle
            {
                OFFSET   0.001000   0.157500   0.000000
                CHANNELS 3 Xrotation Yrotation Zrotation
                JOINT lShoulder
                {
                    OFFSET   0.117647   0.000000   0.000000
                    CHANNELS 3 Xrotation Yrotation Zrotation
                    JOINT lElbow
                    {
                        OFFSET   0.245000   0.000000   0.000000
                        CHANNELS 3 Xrotation Yrotation Zrotation
                        JOINT lWrist
                        {
                            OFFSET   0.240000   0.000000   0.000000
                            CHANNELS 3 Xrotation Yrotation Zrotation
                            End Site
                            {
                                OFFSET   0.116353  -0.002500   0.000000
                            }
                        }
                    }
                }
            }
        }
    }
    JOINT rHip
    {
        OFFSET  -0.100000  -0.051395   0.000000
        CHANNELS 3 Xrotation Yrotation Zrotation
        JOINT rKnee
        {
            OFFSET   0.000000  -0.410000   0.000000
            CHANNELS 3 Xrotation Yrotation Zrotation
            JOINT rAnkle
            {
                OFFSET   0.000000  -0.390000   0.000000
                CHANNELS 3 Xrotation Yrotation Zrotation
                JOINT rToeJoint
                {
                    OFFSET   0.000000  -0.050000   0.130000
                    CHANNELS 3 Xrotation Yrotation Zrotation
                    End Site
                    {
                        OFFSET  -0.010000   0.002000   0.060000
                    }
                }
            }
        }
    }
    JOINT lHip
    {
        OFFSET   0.100000  -0.051395   0.000000
        CHANNELS 3 Xrotation Yrotation Zrotation
        JOINT lKnee
        {
            OFFSET   0.000000  -0.410000   0.000000
            CHANNELS 3 Xrotation Yrotation Zrotation
            JOINT lAnkle
            {
                OFFSET   0.000000  -0.390000   0.000000
                CHANNELS 3 Xrotation Yrotation Zrotation
                JOINT lToeJoint
                {
                    OFFSET   0.000000  -0.050000   0.130000
                    CHANNELS 3 Xrotation Yrotation Zrotation
                    End Site
                    {
                        OFFSET   0.010000   0.002000   0.060000
                    }
                }
            }
        }
    }
}
MOTION
Frames: 12
Frame Time:   0.008333
 -2.376719   0.925631   3.975860   0.000000   0.000000   0.000000   0.000000   0.000000   0.000000   0.000000   0.000000   0.000000   0.000000   0.000000   0.000000   0.000000   0.000000   0.000000   0.000000   0.000000   0.000000   0.000000   0.000000   0.000000   0.000000   0.000000   0.000000   0.000000   0.000000   0.000000   0.000000   0.000000   0.000000   0.000000   0.000000   0.000000   0.000000   0.000000   0.000000   0.000000   0.000000   0.000000   0.000000   0.000000   0.000000   0.000000   0.000000   0.000000   0.000000   0.000000   0.000000   0.000000   0.000000   0.000000   0.000000   0.000000   0.000000   0.000000   0.000000   0.000000   0.000000   0.000000   0.000000
 -2.376695   0.925409   3.976282  -0.249199  -0.037449   0.072339   0.133735  -0.027369  -0.101134   0.161335  -0.066128  -0.014489  -0.085051  -0.013731  -0.073179   0.441219  -0.540675  -0.592170   2.027465   0.058865   2.260325   0.053939   3.598817  -0.080426   0.030641  -1.358750  -1.450026   0.303261   0.657016   0.430556   2.019206   0.180919  -1.879072   0.049485  -3.609073   0.075867   0.053089   1.221736   1.392945   0.262516  -0.110820  -0.136052   0.046256   0.000026  -0.000060  -0.413992  -0.235577   0.032215   0.049379   0.000013  -0.000165   0.235243  -0.156565  -0.021072   0.433705  -0.000197  -0.000732  -0.757269   0.197529   0.111933   0.098237  -0.000138   0.000003
 -2.376743   0.925139   3.976686  -0.537473  -0.146193   0.152471   0.233915  -0.036467  -0.219993   0.338635  -0.107359  -0.054116  -0.145359  -0.031074  -0.150430   0.870334  -0.937879  -0.784714   4.026616   0.352890   4.835776   0.131904   7.328698  -0.145752   0.146968  -1.714344  -2.476561   0.605816   1.203756   0.461682   3.914512   0.183118  -3.945597   0.120077  -7.336555   0.134161   0.189024   1.494473   2.367443   0.517362  -0.223286  -0.324215   0.108672   0.000078  -0.000168  -0.803867  -0.459868   0.059525   0.066938   0.000023  -0.000200   0.541588  -0.306867   0.006490   0.925571  -0.000644  -0.001686  -1.467332   0.382303   0.219662   0.147133  -0.000202  -0.000028
 -2.376866   0.924614   3.977051  -0.822499  -0.277584   0.228903   0.309940  -0.038282  -0.347023   0.491563  -0.134362  -0.109812  -0.208678  -0.048349  -0.224988   1.268466  -1.202322  -0.707137   5.977912   0.827281   7.599252   0.217983  11.065347  -0.196175   0.271855  -1.704179  -3.082750   0.890512   1.623754   0.218301   5.674361   0.050306  -6.075608   0.196657 -11.095219   0.176603   0.328035   1.441883   2.898742   0.735928  -0.333220  -0.543543   0.163094   0.000129  -0.000248  -1.168165  -0.670535   0.083017   0.078599   0.000030  -0.000206   0.873127  -0.448335   0.084136   1.413753  -0.001218  -0.002484  -2.129306   0.553688   0.322523   0.190762  -0.000258  -0.000061
 -2.377027   0.923667   3.977394  -1.093224  -0.394940   0.297153   0.369317  -0.036522  -0.473800   0.619622  -0.151936  -0.165558  -0.276866  -0.065453  -0.299192   1.639295  -1.360599  -0.414049   7.799550   1.443584  10.381354   0.294323  14.585475  -0.228752   0.401969  -1.445130  -3.307148   1.159600   1.940927  -0.210838   7.306496  -0.194687  -8.205542   0.271022 -14.874690   0.207558   0.461834   1.236291   3.080082   0.919764  -0.439487  -0.785340   0.205144   0.000165  -0.000281  -1.508876  -0.868069   0.103204   0.085008   0.000032  -0.000188   1.212252  -0.580728   0.203866   1.883145  -0.001804  -0.002969  -2.747257   0.712785   0.420479   0.228538  -0.000300  -0.000078
 -2.377369   0.923508   3.977874  -1.353772  -0.483516   0.182982   0.403760  -0.033990  -0.472836   0.728494  -0.165433  -0.150819  -0.345054  -0.081494  -0.367582   1.988303  -1.452865   0.117477   9.465612   2.151101  13.122800   0.358666  17.885793  -0.246918   0.527910  -1.087103  -3.241691   1.416606   2.187387  -0.853567   8.819975  -0.528155 -10.337584   0.342746 -18.668325   0.229847   0.589340   0.949147   3.011579   1.106978  -0.589223  -0.673373   0.419671   0.000125  -0.000675  -1.562539  -1.103851   0.215679   0.093718   0.000017  -0.000186   1.573213  -0.702808   0.529034   2.329511  -0.002327  -0.003161  -3.321080   0.861772   0.514435   0.286461  -0.000394  -0.000096
 -2.377551   0.923477   3.978414  -1.578397  -0.526616   0.122862   0.414622  -0.038969  -0.519089   0.811928  -0.184344  -0.143858  -0.415931  -0.096399  -0.431778   2.320353  -1.510260   0.763497  10.989021   2.918745  15.778981   0.406273  20.976939  -0.255164   0.641090  -0.678820  -2.896418   1.664523   2.385104  -1.574016  10.223886  -0.925913 -12.412459   0.405373 -22.458251   0.246030   0.705176   0.609204   2.699688   1.300000  -0.706850  -0.619866   0.584278   0.000101  -0.000772  -1.712211  -1.295413   0.272552   0.117806   0.000003  -0.000223   1.911928  -0.816039   0.777500   2.752114  -0.002608  -0.003067  -3.857297   1.000066   0.603593   0.335282  -0.000433  -0.000086
 -2.377469   0.923196   3.978814  -1.622842  -0.580026   0.018127   0.330279  -0.003740  -0.465166   0.798573  -0.176645  -0.115965  -0.549407  -0.152465  -0.554258   2.648304  -1.717269   0.980916  12.912855   3.740506  18.070093   0.453873  24.591959  -0.286180   0.704138  -0.295904  -1.794619   2.005313   2.552242  -1.895033  11.813807  -1.500910 -14.463016   0.450696 -26.282586   0.272143   0.777211   0.083291   1.803667   1.190580  -0.868739  -0.543193   0.900922   0.000136  -0.001225  -1.608320  -1.533129   0.356972   0.151838  -0.000013  -0.000315   2.154276  -0.892779   1.027130   2.824422  -0.002184  -0.002534  -4.213519   1.221195   0.725378   0.442591  -0.000591   0.000011
 -2.377219   0.922854   3.979209  -1.644311  -0.569701  -0.100191   0.254370   0.010151  -0.388443   0.770780  -0.186581  -0.080472  -0.681953  -0.205028  -0.660608   2.946323  -1.915883   1.020238  14.678009   4.569739  20.072130   0.475901  27.989755  -0.303947   0.786112   0.284776  -0.774760   2.323006   2.688204  -2.078319  13.279638  -2.094354 -16.285219   0.480140 -30.114614   0.292139   0.851551  -0.484962   0.920620   1.056800  -1.030144  -0.459705   1.230561   0.000186  -0.001427  -1.489777  -1.759036   0.440830   0.206822  -0.000031  -0.000435   2.377358  -0.965128   1.256328   2.841786  -0.001764  -0.002037  -4.548352   1.427201   0.840318   0.545548  -0.000668   0.000133
 -2.376829   0.922497   3.979635  -1.653958  -0.510297  -0.218568   0.184145   0.011595  -0.312681   0.740403  -0.208123  -0.045934  -0.805686  -0.253913  -0.754909   3.214898  -2.105325   0.954350  16.296832   5.384727  21.846026   0.480148  31.161876  -0.311397   0.862443   0.871476   0.074643   2.612701   2.804375  -2.165470  14.626534  -2.687955 -17.910229   0.499079 -33.948551   0.307306   0.920483  -1.042082   0.167701   0.925976  -1.181255  -0.381519   1.548478   0.000242  -0.001408  -1.380708  -1.969715   0.520091   0.260770  -0.000040  -0.000493   2.584819  -1.031358   1.455799   2.848193  -0.001415  -0.001631  -4.861931   1.618664   0.948456   0.639287  -0.000680   0.000251
 -2.376218   0.922510   3.980123  -1.683406  -0.407899  -0.144445   0.137848  -0.003109  -0.387135   0.717666  -0.246476  -0.084240  -0.919006  -0.298879  -0.846816   3.458432  -2.281256   0.857658  17.782580   6.186295  23.451474   0.473319  34.123359  -0.311389   0.931487   1.427111   0.793245   2.870615   2.890587  -2.200413  15.858955  -3.287085 -19.370430   0.505325 -37.549782   0.314688   0.987100  -1.653021  -0.454309   0.850788  -1.315567  -0.515804   1.825453   0.000328  -0.001209  -1.362305  -2.160850   0.577744   0.318129  -0.000029  -0.000507   2.683663  -1.066242   1.348760   2.784866  -0.001153  -0.001343  -5.074720   1.821506   1.002028   0.748510  -0.000552   0.000467
 -2.375613   0.922503   3.980726  -1.717409  -0.337762  -0.083767   0.091659  -0.005745  -0.437783   0.696264  -0.277629  -0.131409  -1.022522  -0.339735  -0.936004   3.678988  -2.447205   0.697726  19.149467   6.961597  24.890790   0.457720  36.887995  -0.305278   0.993002   1.958187   1.424387   3.108110   2.970418  -2.186718  16.994259  -3.872950 -20.696094   0.500808 -40.916443   0.315867   1.046723  -2.272805  -1.010083   0.797156  -1.432236  -0.635290   2.080007   0.000381  -0.001076  -1.359732  -2.334502   0.623242   0.364452  -0.000017  -0.000495   2.770710  -1.109562   1.249342   2.776271  -0.000926  -0.001077  -5.288696   1.994628   1.078621   0.823341  -0.000458   0.000509
